<?xml version="1.0" encoding="utf-8"?>
<!-- Generator: Adobe Illustrator 27.1.1, SVG Export Plug-In . SVG Version: 6.00 Build 0)  -->
<svg version="1.1" id="_Слой_1" xmlns="http://www.w3.org/2000/svg" xmlns:xlink="http://www.w3.org/1999/xlink" x="0px"
	 y="0px" viewBox="0 0 246.1 278.6" style="enable-background:new 0 0 246.1 278.6;" xml:space="preserve">
<style type="text/css">
	.st0{fill:#FFE4D4;stroke:#FFAF94;stroke-width:20;stroke-miterlimit:10;}
	.st1{fill:none;stroke:#FFAF94;stroke-width:25;stroke-miterlimit:10;}
	.st2{fill:none;stroke:#FFCBBF;stroke-width:45;stroke-miterlimit:10;}
	.st3{fill:none;stroke:#FFD3BF;stroke-width:20;stroke-miterlimit:10;}
	.st4{fill:none;stroke:#FF7CAE;stroke-width:30;stroke-miterlimit:10;}
	.st5{fill:none;stroke:#FFAF94;stroke-width:20;stroke-miterlimit:10;}
</style>
<path class="st0" d="M236.1,198.1V79.7c0-3.8-2-7.2-5.3-9.1L128.3,11.4c-3.3-1.9-7.3-1.9-10.5,0L15.3,70.6C12,72.5,10,75.9,10,79.7
	v118.4c0,3.8,2,7.2,5.3,9.1l102.5,59.2c3.3,1.9,7.3,1.9,10.5,0l102.5-59.2C234.1,205.3,236.1,201.8,236.1,198.1z"/>
<line class="st1" x1="123" y1="269.4" x2="123" y2="138.9"/>
<path class="st2" d="M67.5,107.2c35.7-22.7,71.3-45.3,107-68"/>
<line class="st3" x1="177.5" y1="37.1" x2="68.5" y2="104.7"/>
<line class="st4" x1="34.3" y1="89.2" x2="34.3" y2="219.7"/>
<path class="st1" d="M10,73.6l103,59.5c6.2,3.6,13.8,3.6,20,0l103-59.5"/>
<path class="st5" d="M236.1,198.9V80.5c0-3.8-2-7.2-5.3-9.1L128.3,12.2c-3.3-1.9-7.3-1.9-10.5,0L15.3,71.4C12,73.3,10,76.8,10,80.5
	v118.4c0,3.8,2,7.2,5.3,9.1l102.5,59.2c3.3,1.9,7.3,1.9,10.5,0L230.8,208C234.1,206.1,236.1,202.7,236.1,198.9L236.1,198.9z"/>
</svg>
