<svg width="20px" height="20px" viewBox="0 0 24 24" fill="none" xmlns="http://www.w3.org/2000/svg">
<path d="M21 11V9C21 7.89543 20.1046 7 19 7H17M21 11H3M21 11H20V18C20 19.1046 19.1046 20 18 20H12M3 11V9C3 7.89543 3.89543 7 5 7H7M3 11V11C3.55228 11 4 11.4477 4 12V18C4 19.1046 4.89543 20 6 20H12M12 7V20M12 7H17M12 7H7M12 7V6M17 7L17.3158 5.73692C17.6633 4.3467 16.6119 3 15.1788 3V3C14.4424 3 13.7546 3.36807 13.3461 3.98086L12 6M7 7L6.68423 5.73692C6.33668 4.3467 7.38815 3 8.82116 3V3C9.55763 3 10.2454 3.36807 10.6539 3.98086L12 6" stroke="#f2f2f2" stroke-width="2" stroke-linecap="round" stroke-linejoin="round"/>
</svg>