<?xml version="1.0" encoding="UTF-8"?>
<svg id="_Слой_1" data-name="Слой 1" xmlns="http://www.w3.org/2000/svg" viewBox="0 0 246.07 278.59">
  <defs>
    <style>
      .cls-1 {
        stroke: #cfbeb7;
        stroke-width: 30px;
      }

      .cls-1, .cls-2, .cls-3, .cls-4, .cls-5, .cls-6, .cls-7 {
        stroke-miterlimit: 10;
      }

      .cls-1, .cls-4, .cls-6, .cls-7 {
        fill: #ffe4d4;
      }

      .cls-2 {
        stroke: #ffcbbf;
        stroke-width: 45px;
      }

      .cls-2, .cls-3, .cls-5 {
        fill: none;
      }

      .cls-3, .cls-4 {
        stroke-width: 25px;
      }

      .cls-3, .cls-4, .cls-5, .cls-7 {
        stroke: #ffaf94;
      }

      .cls-5, .cls-6, .cls-7 {
        stroke-width: 20px;
      }

      .cls-6 {
        stroke: #ffd3bf;
      }
    </style>
  </defs>
  <path class="cls-7" d="m236.07,198.07v-118.36c0-3.76-2.01-7.24-5.27-9.12L128.3,11.41c-3.26-1.88-7.27-1.88-10.53,0L15.27,70.59c-3.26,1.88-5.27,5.36-5.27,9.12v118.36c0,3.76,2.01,7.24,5.27,9.12l102.5,59.18c3.26,1.88,7.27,1.88,10.53,0l102.5-59.18c3.26-1.88,5.27-5.36,5.27-9.12Z"/>
  <line class="cls-4" x1="123.03" y1="269.41" x2="123.03" y2="138.89"/>
  <path class="cls-2" d="m67.53,107.2c35.67-22.67,71.33-45.33,107-68"/>
  <line class="cls-6" x1="177.53" y1="37.12" x2="68.54" y2="104.71"/>
  <line class="cls-1" x1="34.33" y1="89.21" x2="34.33" y2="219.73"/>
  <path class="cls-3" d="m10,73.63l103.01,59.47c6.2,3.58,13.85,3.58,20.05,0l103.01-59.47"/>
  <path class="cls-5" d="m236.07,198.88v-118.36c0-3.76-2.01-7.24-5.27-9.12L128.3,12.23c-3.26-1.88-7.27-1.88-10.53,0L15.27,71.41c-3.26,1.88-5.27,5.36-5.27,9.12v118.36c0,3.76,2.01,7.24,5.27,9.12l102.5,59.18c3.26,1.88,7.27,1.88,10.53,0l102.5-59.18c3.26-1.88,5.27-5.36,5.27-9.12Z"/>
</svg>